<svg width="15" height="15" fill="none" xmlns="http://www.w3.org/2000/svg"><g clip-path="url(#a)"><path d="m8.085 11.667 6.675-6.675a.815.815 0 0 0 .24-.58.815.815 0 0 0-.24-.58l-.491-.492a.822.822 0 0 0-1.16 0L7.502 8.945l-5.61-5.612a.815.815 0 0 0-.58-.24.816.816 0 0 0-.581.24l-.491.492a.815.815 0 0 0-.24.58c0 .22.085.426.24.58l6.68 6.682c.156.155.363.24.583.24.22 0 .427-.085.582-.24Z" fill="#000"/></g><defs><clipPath id="a"><path fill="#fff" transform="rotate(90 7.5 7.5)" d="M0 0h15v15H0z"/></clipPath></defs></svg>